<?xml version="1.0" encoding="UTF-8"?>
<svg id="Layer_1" data-name="Layer 1" xmlns="http://www.w3.org/2000/svg" viewBox="0 0 1920 17" style="fill: #fff;">
  <path d="M1920,17V0H0V17c7.09,0,10.65-4.16,14.09-8.18,3.45-4.02,6.71-7.82,13.34-7.82s9.88,3.8,13.33,7.82c3.44,4.02,7,8.18,14.09,8.18s10.65-4.16,14.09-8.18c3.45-4.02,6.71-7.82,13.33-7.82s9.89,3.8,13.34,7.82c3.44,4.02,7.01,8.18,14.09,8.18s10.65-4.16,14.1-8.18c3.44-4.02,6.7-7.82,13.33-7.82s9.88,3.8,13.33,7.82c3.44,4.02,7.01,8.18,14.09,8.18s10.65-4.16,14.1-8.18c3.45-4.02,6.7-7.82,13.33-7.82s9.88,3.8,13.33,7.82,7.01,8.18,14.1,8.18,10.64-4.16,14.09-8.18,6.7-7.82,13.33-7.82,9.89,3.8,13.33,7.82c3.45,4.02,7.01,8.18,14.1,8.18s10.65-4.16,14.09-8.18c3.45-4.02,6.71-7.82,13.33-7.82s9.89,3.8,13.34,7.82c3.44,4.02,7,8.18,14.09,8.18s10.65-4.16,14.09-8.18c3.45-4.02,6.71-7.82,13.34-7.82s9.88,3.8,13.33,7.82,7.01,8.18,14.09,8.18,10.65-4.16,14.1-8.18,6.7-7.82,13.33-7.82,9.88,3.8,13.33,7.82c3.45,4.02,7.01,8.18,14.1,8.18s10.65-4.16,14.09-8.18c3.45-4.02,6.71-7.82,13.33-7.82s9.89,3.8,13.34,7.82c3.44,4.02,7,8.18,14.09,8.18s10.65-4.16,14.09-8.18c3.45-4.02,6.71-7.82,13.34-7.82s9.88,3.8,13.33,7.82,7.01,8.18,14.09,8.18,10.65-4.16,14.1-8.18,6.71-7.82,13.33-7.82,9.89,3.8,13.34,7.82c3.44,4.02,7,8.18,14.09,8.18s10.65-4.16,14.09-8.18c3.45-4.02,6.71-7.82,13.34-7.82s9.88,3.8,13.33,7.82,7.01,8.18,14.1,8.18,10.64-4.16,14.09-8.18,6.71-7.82,13.33-7.82,9.89,3.8,13.34,7.82c3.44,4.02,7,8.18,14.09,8.18s10.65-4.16,14.1-8.18,6.7-7.82,13.33-7.82,9.88,3.8,13.33,7.82c3.45,4.02,7.01,8.18,14.1,8.18s10.65-4.16,14.09-8.18c3.45-4.02,6.71-7.82,13.34-7.82s9.88,3.8,13.33,7.82c3.45,4.02,7.01,8.18,14.09,8.18s10.65-4.16,14.1-8.18c3.45-4.02,6.7-7.82,13.33-7.82s9.89,3.8,13.34,7.82c3.44,4.02,7,8.18,14.09,8.18s10.65-4.16,14.09-8.18c3.45-4.02,6.71-7.82,13.34-7.82s9.88,3.8,13.33,7.82,7.01,8.18,14.1,8.18,10.65-4.16,14.09-8.18c3.45-4.02,6.71-7.82,13.34-7.82s9.88,3.8,13.33,7.82c3.45,4.02,7.01,8.18,14.1,8.18s10.64-4.16,14.09-8.18c3.45-4.02,6.71-7.82,13.33-7.82s9.89,3.8,13.34,7.82c3.44,4.02,7,8.18,14.09,8.18s10.65-4.16,14.1-8.18c3.45-4.02,6.7-7.82,13.33-7.82s9.89,3.8,13.34,7.83c3.44,4.01,7,8.17,14.09,8.17s10.65-4.16,14.09-8.18c3.45-4.02,6.71-7.82,13.34-7.82s9.88,3.8,13.33,7.82c3.45,4.02,7.01,8.18,14.09,8.18s10.65-4.16,14.1-8.18c3.45-4.02,6.71-7.82,13.33-7.82s9.89,3.8,13.34,7.82c3.44,4.02,7,8.18,14.09,8.18s10.65-4.16,14.09-8.18c3.45-4.02,6.71-7.82,13.33-7.82s9.89,3.8,13.34,7.82c3.44,4.02,7,8.18,14.09,8.18s10.65-4.16,14.09-8.18c3.45-4.02,6.71-7.82,13.34-7.82s9.88,3.8,13.33,7.82c3.45,4.02,7.01,8.18,14.09,8.18s10.66-4.16,14.1-8.18c3.45-4.02,6.71-7.82,13.34-7.82s9.88,3.8,13.33,7.82c3.44,4.02,7.01,8.18,14.09,8.18s10.65-4.16,14.1-8.18c3.45-4.02,6.71-7.82,13.33-7.82s9.89,3.8,13.34,7.83c3.44,4.01,7,8.17,14.09,8.17s10.65-4.16,14.09-8.18c3.45-4.02,6.71-7.82,13.34-7.82s9.88,3.8,13.33,7.82c3.45,4.02,7.01,8.18,14.1,8.18s10.65-4.16,14.09-8.18c3.45-4.02,6.71-7.82,13.34-7.82s9.89,3.8,13.33,7.82c3.45,4.02,7.01,8.18,14.1,8.18s10.65-4.16,14.1-8.18c3.44-4.02,6.7-7.82,13.33-7.82s9.89,3.8,13.34,7.82c3.44,4.02,7,8.18,14.09,8.18s10.65-4.16,14.1-8.17c3.45-4.03,6.7-7.83,13.33-7.83s9.89,3.8,13.34,7.83c3.44,4.01,7.01,8.17,14.09,8.17s10.65-4.16,14.1-8.18c3.45-4.02,6.71-7.82,13.34-7.82s9.88,3.8,13.33,7.82c3.45,4.02,7.01,8.18,14.09,8.18s10.65-4.16,14.1-8.18,6.71-7.82,13.33-7.82,9.89,3.8,13.34,7.83c3.44,4.01,7.01,8.17,14.09,8.17s10.66-4.16,14.1-8.18c3.45-4.02,6.71-7.82,13.34-7.82s9.89,3.8,13.34,7.82c3.44,4.02,7,8.18,14.09,8.18s10.65-4.16,14.1-8.18c3.45-4.02,6.71-7.82,13.34-7.82s9.88,3.8,13.33,7.82c3.45,4.02,7.01,8.18,14.1,8.18s10.66-4.16,14.1-8.18c3.45-4.02,6.71-7.82,13.34-7.82s9.89,3.8,13.34,7.82c3.45,4.02,7.01,8.18,14.1,8.18Z"/>
</svg>